<?xml version="1.0" encoding="utf-8"?>
<!-- Generator: Adobe Illustrator 15.0.2, SVG Export Plug-In . SVG Version: 6.00 Build 0)  -->
<!DOCTYPE svg PUBLIC "-//W3C//DTD SVG 1.1//EN" "http://www.w3.org/Graphics/SVG/1.1/DTD/svg11.dtd">
<svg version="1.1" xmlns="http://www.w3.org/2000/svg" xmlns:xlink="http://www.w3.org/1999/xlink" x="0px" y="0px" width="222px"
	 height="52px" viewBox="0 0 222 52" enable-background="new 0 0 222 52" xml:space="preserve">
<g id="Layer_5" display="none">
	<rect x="-5" display="inline" width="488.5" height="100"/>
</g>
<g id="HH_Text" display="none">
	
		<text transform="matrix(1 0 0 1 98.2017 36.7021)" display="inline" fill="#B3B3B3" stroke="#B3B3B3" stroke-width="3" font-family="'Arkitech'" font-size="31.23">HIGHLIGHT</text>
	
		<text transform="matrix(1 0 0 1 95.8682 90.0352)" display="inline" fill="#99CC33" stroke="#8BC541" stroke-width="4" font-family="'Arkitech'" font-size="60.5">HUNTER</text>
</g>
<g id="HH_Circle_Logo" display="none">
	<g display="inline">
		<linearGradient id="SVGID_1_" gradientUnits="userSpaceOnUse" x1="44.7393" y1="94.5762" x2="44.7393" y2="11.0986">
			<stop  offset="0" style="stop-color:#414042"/>
			<stop  offset="1" style="stop-color:#000000"/>
		</linearGradient>
		<circle fill="url(#SVGID_1_)" cx="44.739" cy="52.838" r="41.739"/>
		<g>
			<g>
				<path fill="#CCCCCC" stroke="#231F20" d="M45.803,47.784L31.304,22.198c-2.083-3.632-7.957-0.055-5.902,3.525l14.78,25.756
					c0.983-1.013,2.117-1.909,3.397-2.645C44.303,48.419,45.048,48.072,45.803,47.784z"/>
				<path fill="#CCCCCC" stroke="#231F20" d="M38.259,53.906c-4.601-8.022-8.96-15.735-13.569-23.768
					c-2.121-3.694-7.688-0.429-5.686,3.334l7.957,14.223l8.867,15.454C35.648,59.895,36.504,56.648,38.259,53.906z"/>
				<path fill="#CCCCCC" stroke="#231F20" d="M56.34,47.634c-4.717-8.216-9.233-16.084-13.981-24.358
					c-1.923-3.351-7.892-0.271-5.7,3.548l11.624,20.252C50.997,46.543,53.777,46.753,56.34,47.634z"/>
				<path fill="#CCCCCC" stroke="#231F20" d="M61.046,35.772c-1.954-2.379-6.958-0.071-5.13,3.271c0,0,5.642,8.458,9.292,16.416
					c3.564,7.262,0.795,16.084-6.327,20.167c-3.8,2.181-8.024,2.658-11.933,1.515c-10.938-1.69-18.48-21.764-25.752-32.707
					c-2.122-3.191-6.643-0.587-4.813,3.201C27.4,69.348,40.245,89.549,58.771,82.064C77.102,74.658,75.44,54.26,61.046,35.772z"/>
			</g>
			<path fill="#99CC33" stroke="#231F20" d="M59.33,57.666c-2.547-4.441-8.211-5.975-12.65-3.425
				c-4.438,2.545-5.971,8.21-3.422,12.648c2.545,4.44,8.208,5.973,12.648,3.423C60.345,67.769,61.878,62.104,59.33,57.666z"/>
		</g>
	</g>
</g>
<g id="LOGO">
	<g>
		<path fill="#CCCCCC" d="M23.318,24.516l-8.739-15.42c-1.256-2.189-4.795-0.033-3.557,2.125l8.908,15.521
			c0.592-0.609,1.275-1.148,2.047-1.593C22.413,24.898,22.862,24.689,23.318,24.516z"/>
		<path fill="#CCCCCC" d="M18.771,28.205c-2.773-4.834-5.4-9.482-8.179-14.323c-1.278-2.226-4.633-0.26-3.427,2.009l4.795,8.572
			l5.344,9.313C17.197,31.813,17.712,29.858,18.771,28.205z"/>
		<path fill="#CCCCCC" d="M29.667,24.425c-2.843-4.953-5.563-9.694-8.424-14.68c-1.16-2.021-4.757-0.163-3.437,2.138l7.005,12.206
			C26.447,23.768,28.123,23.894,29.667,24.425z"/>
		<path fill="#CCCCCC" d="M32.504,17.276c-1.177-1.435-4.192-0.044-3.09,1.971c0,0,3.399,5.097,5.599,9.894
			c2.148,4.377,0.478,9.693-3.811,12.155c-2.292,1.315-4.838,1.602-7.194,0.913c-6.591-1.02-11.137-13.117-15.52-19.712
			c-1.279-1.924-4.003-0.355-2.902,1.929c6.641,13.086,14.382,25.261,25.546,20.75C42.181,40.712,41.18,28.42,32.504,17.276z"/>
		<circle fill="#99CC33" cx="26.627" cy="33.25" r="5.585"/>
	</g>
</g>
<g id="HH_Outlines">
	<g>
		<g>
			<polygon fill="#99CC33" points="69.473,31.749 52.153,31.743 52.155,24.001 48.254,24 48.248,44.842 52.148,44.842 
				52.152,35.645 69.472,35.65 69.469,44.848 73.397,44.849 73.404,24.009 69.476,24.007 			"/>
			<path fill="#99CC33" d="M97.419,36.207c0,2.573-2.2,4.747-4.805,4.747l-7.824-0.003c-1.265-0.001-2.462-0.506-3.37-1.424
				c-0.906-0.916-1.404-2.116-1.404-3.38l0.004-12.136l-3.902-0.001l-0.003,12.136c0,2.313,0.912,4.501,2.57,6.161
				c1.64,1.642,3.828,2.546,6.159,2.546l7.771,0.003c2.313,0,4.491-0.902,6.132-2.542c1.659-1.659,2.573-3.846,2.574-6.159
				l0.004-12.137l-3.902-0.001L97.419,36.207z M92.615,43.947L92.615,43.947L92.615,43.947L92.615,43.947z"/>
			<path fill="#99CC33" d="M127.588,40.481c-0.063,0.511-0.562,0.648-0.823,0.648c-0.233,0-0.464-0.1-0.598-0.257l-13.076-15.416
				c-0.827-1.07-2.124-1.683-3.562-1.683c-2.149,0-4.524,1.417-4.766,4.046l-0.04,0.116l-0.005,16.922l3.901,0.002l0.005-16.557
				c0.015-0.493,0.618-0.601,0.851-0.601c0.267,0,0.469,0.078,0.598,0.229l13.08,15.421c0.596,0.729,1.014,1,1.604,1.261
				c0.613,0.291,1.298,0.444,1.981,0.444c2.43,0,4.482-1.818,4.772-4.229l0.012-16.857l-3.929,0L127.588,40.481z"/>
			<polygon fill="#99CC33" points="133.054,27.929 143.898,27.933 143.893,44.871 147.795,44.873 147.8,27.935 158.645,27.937 
				158.646,24.036 133.056,24.027 			"/>
			<path fill="#99CC33" d="M158.804,32.74l-0.001,3.432c0,2.306,0.903,4.485,2.545,6.135c1.648,1.657,3.835,2.571,6.157,2.572
				l16.968,0.005l0.002-3.901l-16.968-0.006c-2.538-0.001-4.691-2.066-4.798-4.555l21.767,0.007l0.002-3.902L162.71,32.52
				c0.055-1.197,0.549-2.316,1.405-3.172c0.908-0.908,2.114-1.408,3.394-1.408l16.968,0.006l0.002-3.902l-16.971-0.005
				C162.71,24.039,158.805,27.942,158.804,32.74z"/>
			<path fill="#99CC33" d="M211.158,37.06c0.919-0.333,1.756-0.845,2.429-1.497c1.374-1.274,2.13-2.973,2.131-4.783
				c0-2.232-1.212-4.389-3.168-5.628c-1.128-0.71-2.5-1.101-3.859-1.102l-20.729-0.006l-0.007,20.84l3.901,0.002l0.002-7.385
				l14.753,0.004l5.516,7.387L217,44.894L211.158,37.06z M191.862,27.947l16.828,0.005c0.805,0,1.608,0.308,2.204,0.843
				c0.596,0.535,0.924,1.24,0.924,1.984c0,1.532-1.384,2.826-3.02,2.826L191.861,33.6L191.862,27.947z"/>
		</g>
		<g>
			<polygon fill="#CCCCCC" points="59.164,13.253 50.647,13.253 50.647,9.256 48.208,9.256 48.208,20.439 50.647,20.439 
				50.647,15.691 59.164,15.691 59.164,20.439 61.617,20.439 61.617,9.256 59.164,9.256 			"/>
			<rect x="62.592" y="9.256" fill="#CCCCCC" width="2.438" height="11.183"/>
			<path fill="#CCCCCC" d="M73.293,16.032h4.461c-0.139,1.092-1.113,1.969-2.25,1.969h-4.819c-1.214,0-2.239-1.038-2.239-2.267v-1.8
				c0-1.214,1.038-2.24,2.267-2.24h6.634V9.256h-6.634c-2.594,0-4.706,2.111-4.706,4.706v1.772c0,2.595,2.111,4.706,4.706,4.706
				h4.791c2.595,0,4.706-2.111,4.706-4.706v-2.141h-6.917V16.032z"/>
			<polygon fill="#CCCCCC" points="92.141,13.253 83.624,13.253 83.624,9.256 81.185,9.256 81.185,20.439 83.624,20.439 
				83.624,15.691 92.141,15.691 92.141,20.439 94.593,20.439 94.593,9.256 92.141,9.256 			"/>
			<path fill="#CCCCCC" d="M98.666,17.315c-0.425-0.413-0.659-0.98-0.659-1.595V9.256h-2.438v6.463c0,1.26,0.488,2.443,1.375,3.33
				c0.896,0.896,2.079,1.39,3.33,1.39h8.958v-2.438h-8.958C99.68,18.001,99.11,17.76,98.666,17.315z"/>
			<rect x="110.208" y="9.256" fill="#CCCCCC" width="2.438" height="11.183"/>
			<path fill="#CCCCCC" d="M120.907,16.032h4.461c-0.139,1.092-1.113,1.969-2.25,1.969H118.3c-1.214,0-2.239-1.038-2.239-2.267v-1.8
				c0-1.214,1.038-2.24,2.267-2.24h6.634V9.256h-6.634c-2.595,0-4.706,2.111-4.706,4.706v1.772c0,2.595,2.111,4.706,4.706,4.706
				h4.791c2.595,0,4.706-2.111,4.706-4.706v-2.141h-6.917V16.032z"/>
			<polygon fill="#CCCCCC" points="139.755,13.253 131.238,13.253 131.238,9.256 128.799,9.256 128.799,20.439 131.238,20.439 
				131.238,15.691 139.755,15.691 139.755,20.439 142.208,20.439 142.208,9.256 139.755,9.256 			"/>
			<polygon fill="#CCCCCC" points="143.184,9.256 143.184,11.694 148.782,11.694 148.782,20.439 151.221,20.439 151.221,11.694 
				156.819,11.694 156.819,9.256 			"/>
		</g>
	</g>
</g>
</svg>
