<?xml version="1.0" encoding="utf-8"?>
<!-- Generator: Adobe Illustrator 15.0.2, SVG Export Plug-In . SVG Version: 6.00 Build 0)  -->
<!DOCTYPE svg PUBLIC "-//W3C//DTD SVG 1.1//EN" "http://www.w3.org/Graphics/SVG/1.1/DTD/svg11.dtd">
<svg version="1.1" xmlns="http://www.w3.org/2000/svg" xmlns:xlink="http://www.w3.org/1999/xlink" x="0px" y="0px" width="488.5px"
	 height="100px" viewBox="0 0 488.5 100" enable-background="new 0 0 488.5 100" xml:space="preserve">
<g id="Layer_5" display="none">
	<rect display="inline" width="488.5" height="100"/>
</g>
<g id="HH_Text" display="none">
	
		<text transform="matrix(1 0 0 1 103.2017 36.7021)" display="inline" fill="#B3B3B3" stroke="#B3B3B3" stroke-width="3" font-family="'Arkitech'" font-size="31.23">HIGHLIGHT</text>
	
		<text transform="matrix(1 0 0 1 100.8682 90.0352)" display="inline" fill="#99CC33" stroke="#8BC541" stroke-width="4" font-family="'Arkitech'" font-size="60.5">HUNTER</text>
</g>
<g id="HH_Circle_Logo" display="none">
	<g display="inline">
		<linearGradient id="SVGID_1_" gradientUnits="userSpaceOnUse" x1="49.7393" y1="94.5762" x2="49.7393" y2="11.0986">
			<stop  offset="0" style="stop-color:#414042"/>
			<stop  offset="1" style="stop-color:#000000"/>
		</linearGradient>
		<circle fill="url(#SVGID_1_)" cx="49.739" cy="52.838" r="41.739"/>
		<g>
			<g>
				<path fill="#CCCCCC" stroke="#231F20" d="M50.803,47.784L36.304,22.198c-2.083-3.632-7.957-0.055-5.902,3.525l14.78,25.756
					c0.983-1.013,2.117-1.909,3.397-2.645C49.303,48.419,50.048,48.072,50.803,47.784z"/>
				<path fill="#CCCCCC" stroke="#231F20" d="M43.259,53.906c-4.601-8.022-8.96-15.735-13.569-23.768
					c-2.121-3.694-7.688-0.429-5.686,3.334l7.957,14.223l8.867,15.454C40.648,59.895,41.504,56.648,43.259,53.906z"/>
				<path fill="#CCCCCC" stroke="#231F20" d="M61.34,47.634c-4.717-8.216-9.233-16.084-13.981-24.358
					c-1.923-3.351-7.892-0.271-5.7,3.548l11.624,20.252C55.997,46.543,58.777,46.753,61.34,47.634z"/>
				<path fill="#CCCCCC" stroke="#231F20" d="M66.046,35.772c-1.954-2.379-6.958-0.071-5.13,3.271c0,0,5.642,8.458,9.292,16.416
					c3.564,7.262,0.795,16.084-6.327,20.167c-3.8,2.181-8.024,2.658-11.933,1.515c-10.938-1.69-18.48-21.764-25.752-32.707
					c-2.122-3.191-6.643-0.587-4.813,3.201C32.4,69.348,45.245,89.549,63.771,82.064C82.102,74.658,80.44,54.26,66.046,35.772z"/>
			</g>
			<path fill="#99CC33" stroke="#231F20" d="M64.33,57.666c-2.547-4.441-8.211-5.975-12.65-3.425
				c-4.438,2.545-5.971,8.21-3.422,12.648c2.545,4.44,8.208,5.973,12.648,3.423C65.345,67.769,66.878,62.104,64.33,57.666z"/>
		</g>
	</g>
</g>
<g id="LOGO">
	<g>
		<path fill="#CCCCCC" d="M50.972,44.18L31.714,10.196c-2.769-4.825-10.569-0.072-7.839,4.683l19.63,34.205
			c1.305-1.343,2.809-2.532,4.512-3.51C48.978,45.023,49.966,44.561,50.972,44.18z"/>
		<path fill="#CCCCCC" d="M40.951,52.309c-6.11-10.653-11.901-20.896-18.023-31.564c-2.817-4.906-10.21-0.573-7.552,4.426
			l10.566,18.892L37.72,64.586C37.483,60.262,38.62,55.952,40.951,52.309z"/>
		<path fill="#CCCCCC" d="M64.964,43.98C58.7,33.066,52.704,22.616,46.398,11.629c-2.555-4.452-10.483-0.359-7.573,4.712
			l15.438,26.9C57.868,42.531,61.562,42.81,64.964,43.98z"/>
		<path fill="#CCCCCC" d="M71.216,28.225c-2.594-3.161-9.238-0.096-6.809,4.344c0,0,7.491,11.233,12.338,21.803
			c4.734,9.646,1.053,21.362-8.399,26.786c-5.049,2.898-10.661,3.53-15.854,2.013c-14.527-2.248-24.544-28.908-34.203-43.441
			c-2.818-4.24-8.823-0.782-6.394,4.25C26.53,72.82,43.588,99.648,68.191,89.709C92.542,79.873,90.335,52.783,71.216,28.225z"/>
		<circle fill="#99CC33" cx="58.264" cy="63.428" r="12.308"/>
	</g>
</g>
<g id="HH_Outlines">
	<g>
		<g>
			<polygon fill="#99CC33" points="152.688,60.119 114.518,60.107 114.523,43.046 105.926,43.044 105.911,88.973 114.509,88.973 
				114.516,68.705 152.685,68.717 152.678,88.986 161.337,88.988 161.352,43.062 152.693,43.059 			"/>
			<path fill="#99CC33" d="M214.273,69.943c-0.001,5.67-4.849,10.461-10.588,10.461l-17.243-0.006
				c-2.787-0.002-5.425-1.115-7.426-3.139c-1.997-2.018-3.095-4.662-3.094-7.449l0.008-26.745l-8.598-0.002l-0.008,26.745
				c-0.001,5.098,2.01,9.92,5.664,13.576c3.616,3.617,8.436,5.611,13.573,5.611l17.125,0.006c5.098,0,9.896-1.988,13.513-5.604
				c3.656-3.654,5.67-8.475,5.672-13.572l0.008-26.745l-8.598-0.002L214.273,69.943z M203.687,87.002L203.687,87.002L203.687,87.002
				L203.687,87.002z"/>
			<path fill="#99CC33" d="M280.759,79.363c-0.14,1.127-1.238,1.428-1.812,1.428c-0.514,0-1.022-0.221-1.318-0.566l-28.816-33.973
				c-1.824-2.357-4.68-3.708-7.851-3.709c-4.735,0-9.969,3.123-10.503,8.917l-0.086,0.258l-0.012,37.293l8.598,0.004l0.011-36.488
				c0.031-1.086,1.362-1.324,1.874-1.324c0.587,0,1.033,0.172,1.317,0.504l28.825,33.984c1.313,1.605,2.235,2.203,3.534,2.779
				c1.352,0.641,2.862,0.98,4.367,0.98c5.355,0,9.878-4.008,10.518-9.32l0.026-37.148l-8.659-0.002L280.759,79.363z"/>
			<polygon fill="#99CC33" points="292.806,51.701 316.704,51.709 316.692,89.037 325.29,89.041 325.302,51.713 349.2,51.719 
				349.204,43.121 292.81,43.104 			"/>
			<path fill="#99CC33" d="M349.552,62.303l-0.002,7.562c-0.002,5.082,1.989,9.885,5.607,13.521
				c3.633,3.652,8.452,5.666,13.568,5.668l37.394,0.012l0.004-8.598l-37.394-0.014c-5.593-0.002-10.338-4.555-10.572-10.039
				l47.968,0.016l0.004-8.598l-47.968-0.016c0.121-2.639,1.209-5.105,3.097-6.99c2.002-2.002,4.657-3.104,7.479-3.104l37.394,0.014
				l0.004-8.6l-37.399-0.012C358.16,43.127,349.555,51.73,349.552,62.303z"/>
			<path fill="#99CC33" d="M464.928,71.824c2.027-0.732,3.871-1.861,5.354-3.299c3.026-2.809,4.694-6.551,4.696-10.539
				c0.001-4.92-2.672-9.672-6.982-12.403c-2.486-1.564-5.507-2.426-8.505-2.427l-45.682-0.014l-0.016,45.927l8.599,0.004
				l0.005-16.275l32.512,0.01l12.156,16.279l10.737,0.002L464.928,71.824z M422.404,51.742l37.084,0.012
				c1.774,0,3.545,0.678,4.856,1.857c1.313,1.18,2.036,2.732,2.036,4.373c-0.001,3.375-3.049,6.227-6.654,6.227l-37.325-0.012
				L422.404,51.742z"/>
		</g>
		<g>
			<polygon fill="#CCCCCC" points="129.97,19.359 111.199,19.359 111.199,10.551 105.825,10.551 105.825,35.197 111.199,35.197 
				111.199,24.733 129.97,24.733 129.97,35.197 135.375,35.197 135.375,10.551 129.97,10.551 			"/>
			<rect x="137.523" y="10.551" fill="#CCCCCC" width="5.374" height="24.646"/>
			<path fill="#CCCCCC" d="M161.104,25.483h9.832c-0.308,2.407-2.454,4.34-4.959,4.34h-10.62c-2.674,0-4.934-2.288-4.934-4.997
				v-3.967c0-2.675,2.288-4.935,4.997-4.935h14.619v-5.374H155.42c-5.718,0-10.371,4.652-10.371,10.371v3.904
				c0,5.718,4.652,10.371,10.371,10.371h10.557c5.719,0,10.371-4.652,10.371-10.371v-4.717h-15.244V25.483z"/>
			<polygon fill="#CCCCCC" points="202.642,19.359 183.871,19.359 183.871,10.551 178.497,10.551 178.497,35.197 183.871,35.197 
				183.871,24.733 202.642,24.733 202.642,35.197 208.046,35.197 208.046,10.551 202.642,10.551 			"/>
			<path fill="#CCCCCC" d="M217.021,28.312c-0.937-0.912-1.452-2.161-1.452-3.517V10.551h-5.374v14.244
				c0,2.777,1.077,5.383,3.032,7.339c1.976,1.975,4.582,3.062,7.339,3.062h19.741v-5.374h-19.741
				C219.255,29.823,218.001,29.291,217.021,28.312z"/>
			<rect x="242.456" y="10.551" fill="#CCCCCC" width="5.374" height="24.646"/>
			<path fill="#CCCCCC" d="M266.037,25.483h9.832c-0.308,2.407-2.453,4.34-4.959,4.34h-10.619c-2.675,0-4.935-2.288-4.935-4.997
				v-3.967c0-2.675,2.288-4.935,4.997-4.935h14.618v-5.374h-14.618c-5.719,0-10.371,4.652-10.371,10.371v3.904
				c0,5.718,4.652,10.371,10.371,10.371h10.557c5.719,0,10.371-4.652,10.371-10.371v-4.717h-15.244V25.483z"/>
			<polygon fill="#CCCCCC" points="307.573,19.359 288.803,19.359 288.803,10.551 283.429,10.551 283.429,35.197 288.803,35.197 
				288.803,24.733 307.573,24.733 307.573,35.197 312.979,35.197 312.979,10.551 307.573,10.551 			"/>
			<polygon fill="#CCCCCC" points="315.128,10.551 315.128,15.925 327.466,15.925 327.466,35.197 332.84,35.197 332.84,15.925 
				345.178,15.925 345.178,10.551 			"/>
		</g>
	</g>
</g>
</svg>
